<?xml version="1.0" encoding="utf-8"?>
<!-- Generator: Adobe Illustrator 18.0.0, SVG Export Plug-In . SVG Version: 6.00 Build 0)  -->
<!DOCTYPE svg PUBLIC "-//W3C//DTD SVG 1.1//EN" "http://www.w3.org/Graphics/SVG/1.1/DTD/svg11.dtd">
<svg version="1.1" id="Layer_1" xmlns="http://www.w3.org/2000/svg" xmlns:xlink="http://www.w3.org/1999/xlink" x="0px" y="0px"
	 viewBox="0 0 72 72" enable-background="new 0 0 72 72" xml:space="preserve">
<g>
	<g>
		<path d="M53.1,7.6c1,0.4,2.1,0.7,3,1.5c1.3,1.1,1.2,2.1-0.4,2.8c-1,0.4-1.9,0.8-2.9,1.1c-0.7,0.2-0.8,0.5-0.5,1.1
			c0.8,1.7,0.8,1.7,2.4,0.9c1.1-0.5,2.1-1,3.2-1.5c0.5-0.3,0.8-0.2,0.8,0.4c0,0.8,0,1.5-0.2,2.3c-0.8,4.4-7.8,7.7-11.7,4.7
			c-0.4-0.3-0.7-0.4-1.2-0.1c-1.7,0.8-3.4,1.6-5,2.4c-0.2,0.1-0.6,0.1-0.5,0.5c0.1,0.3,0.4,0.2,0.6,0.2c0.9,0,1.6,0.4,1.9,1.3
			c0.2,0.5,0.5,0.7,0.9,1c1.7,1,3.5,2,5.2,3c1.3,0.8,1.2,1.1,0.8,2.5c-0.5,1.8-1.8,3.1-2,5c0,0.5-0.5,0.9-1,0.9
			c-1-0.1-0.9,0.6-0.9,1.2c0.1,1.8-0.4,2.5-2.2,2.6c-0.6,0-0.7,0.2-0.5,0.7c0.6,1.7,0.8,3.5,1.4,5.3c0.2,0.7,0.4,1.4,1.1,1.9
			c0.3,0.2,0.3,0.6,0.4,1c0.4,1.5,0.8,3.1,1.2,4.6c0.2,0.8,1,1.2,0.9,2.1c0,0.4,0,0.8-0.3,1c-0.8,0.5-0.7,1.1-0.4,1.8
			c0.3,0.8,0.5,1.6,0.9,2.3c0.6,1.2,0.2,1.9-1.1,2.1c-0.5,0.1-0.9,0-1.3,0.4c-1.4,0-2.9,0-4.3,0c-0.1-0.1-0.2-0.2-0.3-0.3
			c-1.3-0.4-1.6-1.3-1.2-2.6c0.3-1.1,0.5-2.3-0.4-3.4c-0.4-0.5-0.4-1.4-0.2-2c0.6-1.3,0.4-2.6,0.1-3.9c-0.5-2.4-1.7-4.4-2.5-6.8
			c-0.3,1.2-0.2,2.4,0.2,3.4c0.2,0.4,0.3,0.9,0.2,1.3c-0.4,1.5-0.2,2.9-0.2,4.4c0,0.1,0,0.2,0,0.2c1,1.4,0.1,3.2,0.9,4.6
			c0.3,0.6-0.1,1-0.7,1.2c-2.7,0.7-5.3,1.4-8.1,1.2c-1-0.1-1.9-0.1-2.9-0.3c-0.5-0.1-0.8-0.4-0.8-1c-0.1-2.5,0.8-3.8,3.3-4.3
			c-0.7-0.9-0.5-1.5,0.5-2.1c0.8-0.5,1.4-3.2,1-4.2c-0.3-0.8-0.4-1.4,0.1-2.1c0.3-0.3,0.2-0.7,0.2-1.1c0-2.7-0.4-5.4-0.7-8.1
			c-0.2-2.2-0.2-4.3,0.5-6.4c0.1-0.3,0.1-0.7,0.3-1.3c-1.5,1.2-2.9,1.9-4.3,2.6c-0.6,0.3-1.2,0.6-1.9,0.8c-1.5,0.4-2.4-0.1-3-1.5
			c-0.2-0.6-0.5-0.7-1.1-0.4c-0.6,0.3-1.3,0.6-2,0.9c-1.8,0.7-3.9-0.5-4.8-2.7c-0.8-1.9-0.2-3.6,1.7-4.5c1-0.5,2.1-0.9,3.2-1.3
			c0.6-0.2,1.1-0.4,1-1.1c0-0.2,0.1-0.5,0.2-0.5c1-0.2,1.7-1.2,2.6-1.2c1-0.1,2-0.8,3,0.1c0.1,0.1,0.3-0.1,0.5-0.2
			c0.5-0.2,0.9-0.3,1.4-0.5c1.7-0.8,4.1-0.8,4-3.6c-1.1-0.1-2.2-0.6-3.1-1.5c-0.5-0.5-0.8-0.9-0.5-1.6c0.3-0.7,0.8-0.9,1.5-1
			c0.8,0,1.5,0.4,2.3,0.6c0.8,0.2,1.2,0.1,1.3-0.8c0.3-1.9,0.8-2.3,2.7-2.3c0.8,0,1.5,0.1,2.2,0.3c2,0.5,2.8,1.5,2.7,3.6
			c0,0.8,0.1,1.2,1,0.7c0.1-0.1,0.3-0.1,0.4-0.2c1.2-0.3,1.8-0.9,2.2-2.3c0.6-2.8,2.6-4.4,5.3-5.3c0.4-0.1,0.8-0.1,1.1-0.4
			C51.2,7.6,52.2,7.6,53.1,7.6z M33.5,24.6c1.8,0.7,5.6-1.1,6.1-2.9c0-0.1,0.1-0.3,0.1-0.4c-0.1-0.6,0.1-0.8,0.8-0.9
			c0.6,0,1-0.6,1-1.2c0-0.5-0.1-1-0.7-1.2c-0.6-0.2-0.9,0.1-1.2,0.6c-0.1,0.2-0.2,0.5-0.5,0.4c-0.4-0.1-0.2-0.4-0.2-0.7
			c0.1-1.8-0.7-3-2.2-3.1c-0.8-0.1-1.5,0.4-2.1,0.8c-0.6,0.3-0.7,0.8-0.7,1.4c0,1.5,0,1.5-1.4,1.1c-0.5-0.1-0.9-0.2-1.2,0.4
			c-0.3,0.5-0.1,1,0.4,1.3c0.6,0.4,2.3,0.4,2.9-0.1c0.2-0.2,0.4-0.3,0.3-0.7c-0.1-0.2-0.6,0-0.2-0.3c0.2-0.2,0.4,0,0.6,0.2
			c0.2,0.4,0,0.7-0.2,0.9c-0.7,0.6-1.5,0.8-2.4,0.7c-0.3,0-0.7-0.3-1,0.1c-0.2,0.4-0.3,0.9-0.1,1.3c0.3,0.5,0.7,0.9,1.1,1.3
			C33.1,23.7,33.5,24,33.5,24.6c-0.7,0.5-0.2,1,0,1.4c0.3,0.7,0.7,1.4,1.5,1.7c0.1,0,0.2-0.1,0.3-0.2c1.1-0.8,2.1-1.5,3.1-2.5
			c0.4-0.4,0.6-0.9,0.3-1.6c-0.8,0.5-1.5,0.9-2.3,1.4C35.2,25.6,34.1,25.5,33.5,24.6z M56.2,10c-1.9-2.1-5.1-2.5-7.7-1
			c-2.5,1.4-3.8,4.6-2.9,7.3c0.9,3,3.9,5,7,4.6c2.9-0.4,5.4-3,5.5-5.8c0-0.7-0.1-1-0.9-0.6c-1.2,0.6-2.4,1.1-3.6,1.7
			c-0.6,0.3-0.9,0.2-1.1-0.4c-0.4-0.9-0.8-1.8-1.3-2.7c-0.4-0.7-0.3-1,0.5-1.3C53.2,11.3,54.7,10.6,56.2,10z M17.3,31.5
			c0.6,0,1.2-0.2,1.8-0.5c3.6-1.7,7.3-3.4,10.9-5c0.8-0.3,1.2-0.9,1.8-1.5c1-1.1-0.2-1.4-0.4-2.1c-0.1-0.2-0.2-0.4-0.2-0.5
			c0-0.6-0.3-0.6-0.8-0.4c-1.6,0.7-3.3,1.3-5,2c-0.4,0.2-0.6,0.4-0.6,0.8c0.1,1.1-0.4,1.4-1.5,1.5c-1,0-2.1,0.5-3.1-0.1
			c-0.1-0.1-0.3,0-0.4,0c-1.3,0.5-2.6,1-3.9,1.6c-0.9,0.5-1.3,1.3-1,2.4C15.3,30.9,16.1,31.5,17.3,31.5z M28.4,60.1
			c2.3-0.4,4.7-0.9,7.1-1.3c0.3-0.1,0.7,0,0.7-0.4c0-0.4-0.4-0.6-0.8-0.7c-1.1-0.2-2.1-0.4-3-1c-0.2-0.1-0.3-0.2-0.5,0
			c-0.9,0.9-1.9,0.9-3.1,0.4c-0.8-0.3-1.5-0.1-2.1,0.6c-0.4,0.5-0.8,1.1-0.4,1.8C26.8,60.1,27.6,59.9,28.4,60.1z M42.4,39.3
			c-0.2,0.7,0.1,1.2,0.8,1.3c0.8,0.2,1.4-0.1,1.8-0.8c0-0.1,0-0.2,0-0.4c-0.3,0.2-0.3,0.6-0.7,0.6c-0.3-0.5,0.2-0.8,0.4-1.2
			c0.2-0.3,0.5-0.8,0.3-0.9c-1.4-0.7-2.8-1.5-4.2-1.8c-0.6-0.1-1.3,0.9-1.5,1.8c-0.1,0.8,0.2,1.3,0.8,1.7c0.3-0.4,0.1-1,0.8-1.2
			c-0.5,0.8-0.3,1.4,0.5,1.7C42.2,40.5,41.8,39.4,42.4,39.3z M40.2,21c0.1,0,0.1,0.1,0.2,0.1c1.9-0.6,3.6-1.6,5.4-2.4
			c0.2-0.1,0.4-0.2,0.3-0.4c-0.3-0.8-0.7-1.6-1-2.4c-0.1-0.2-0.3-0.1-0.5,0c-1.2,0.5-2.4,0.9-3.6,1.4C42.3,19,42.2,19.6,40.2,21z
			 M33.5,12.8c0.5,0,1,0,1.6,0.1c0.5,0.1,1.1,0.3,1.1,0.8c0,0.8,0.5,0.9,1.1,1c0.6,0.1,1.1,0.3,1.7,0.3c0.4,0,0.3-0.4,0.3-0.6
			c-0.2-0.9-0.3-1.9-1.3-2.2c-1.3-0.4-2.7-0.8-4.1-0.1C33.6,12.2,33.5,12.5,33.5,12.8z M19.8,25.3c0-0.1-0.1-0.2-0.1-0.3
			c-1.4,0.6-2.8,1.1-4.2,1.7c-1.7,0.7-2.1,2.3-1.3,4c0.8,1.5,2.5,2.1,4.1,1.3c-0.6,0-1.1,0-1.5,0c-1.2-0.1-2.1-1.1-2.3-2.4
			c-0.2-1.1,0.4-2.2,1.6-2.7C17.3,26.3,18.6,25.8,19.8,25.3z M41,33c0.5-0.3,0.8-0.4,1-0.6c0.4-0.4,1.1-0.8,1-1.4
			c-0.1-0.6-1-0.6-1.5-0.9c-0.4-0.2-0.6,0-0.6,0.4C41,31.3,41,32.1,41,33z M24.5,24.9c0.2-0.7,0-1.3-0.1-2c0-0.4,0.2-0.8-0.4-0.8
			c-0.5,0-0.7,0.3-0.9,0.7C22.8,24,23.1,24.4,24.5,24.9z M22.7,24.8c0-0.6,0-1.1,0-1.6c0-0.3,0.1-0.6-0.3-0.7
			c-0.3-0.1-0.6,0.1-0.8,0.3c-0.5,0.5-0.4,1-0.2,1.6C21.6,25.2,22.3,24.5,22.7,24.8z M26.1,60.4c2.7,1,5.3,0.4,8-0.1
			C31.5,60.5,28.8,61.1,26.1,60.4z M50.9,21.4c-1.3-0.3-2.5-0.8-3.6-1.7c-0.2-0.2-0.4-0.5-0.6-0.1c-0.3,0.4,0.1,0.5,0.3,0.7
			C48.2,21.2,49.5,21.6,50.9,21.4z M31.3,20.7c0-0.1-0.1-0.2-0.1-0.3c-2.1,0.8-4.2,1.7-6.3,2.5c0,0.1,0.1,0.2,0.1,0.3
			C27.1,22.4,29.2,21.6,31.3,20.7z M45.7,11c-0.9,0.9-1.4,1.9-1.5,3.1c0,0.2-0.1,0.5,0.1,0.6c0.2,0.1,0.5-0.1,0.6-0.4
			C45,13.2,45.4,12.1,45.7,11z M33.2,14.1c0.8-0.2,1.6-0.3,2.3,0.2c0.1,0.1,0.3,0.1,0.4-0.1c0.1-0.2,0.1-0.5-0.1-0.6
			c-0.5-0.5-1.2-0.3-1.8-0.3C33.4,13.2,33.1,13.5,33.2,14.1z M32.1,15c0.9,0.5,1.5,0.3,2.2-0.1c0.2-0.1,0.4-0.2,0.3-0.5
			c-0.1-0.2-0.3-0.2-0.5-0.1C33.4,14.3,32.9,14.8,32.1,15z M56.1,11c0-0.1-0.1-0.2-0.1-0.3c-1.4,0.6-2.9,1.1-4.3,1.7
			c0,0.1,0.1,0.2,0.1,0.2C53.2,12.1,54.7,11.5,56.1,11z M21.2,24.8c-0.3-0.4,0-1.2-0.8-1.3c-0.4,0-0.5,0.2-0.5,0.6
			c0,0.5,0.2,1,0.7,1.1C20.7,25.3,21.1,25.2,21.2,24.8z M33.4,17.5c-0.1-0.3,0.2-1-0.4-1c-0.6,0-0.4,0.6-0.5,1
			c-0.2,0.5,0.3,0.7,0.6,0.7C33.7,18.2,33.3,17.8,33.4,17.5z M40.2,16.8c0,0.1,0.1,0.2,0.1,0.3c1.5-0.6,3-1.2,4.5-1.8
			c0-0.1-0.1-0.2-0.1-0.2C43.2,15.7,41.7,16.3,40.2,16.8z"/>
		<path d="M17.3,31.1c-1,0-1.9-0.8-1.9-1.9c0-1,0.9-1.8,1.8-1.8c1,0,1.9,0.9,1.9,1.9C19.1,30.3,18.3,31.1,17.3,31.1z M18.1,29.6
			c-0.1-0.7-0.3-1.2-1.1-1.3c-0.7-0.1-0.9,0.4-1,1c0,0.7,0.4,1.2,1.2,1.3C17.8,30.6,18,30.2,18.1,29.6z"/>
		<path d="M35.9,15.6c0.9,0.8,0.1,2.1,1.1,2.8c-0.2,0.1-0.6,0.3-1.1,0.6C35.8,17.9,35.4,16.8,35.9,15.6z"/>
		<path d="M35.5,22.9c0.1-0.6,0.8-0.6,1.1-1c0.3-0.4,0.8-0.8,0.7-1.5c-0.5,0-0.7,0.6-1.2,0.6c0.5-0.6,0.7-1.6,1.7-1.8
			C37.8,20.9,37.2,22.3,35.5,22.9z"/>
		<path d="M41,18.8c-0.3,0.3,0.1,1-0.6,1.1c-0.1,0-0.2,0-0.1-0.3c0.1-0.5-0.6-1.1,0.4-1.3C40.9,18.3,41.1,18.5,41,18.8z"/>
		<path d="M36.3,21c-0.4,0.6-1.1,0.6-1.6,0.8c-0.3,0.1-0.9,0-0.5,0.6c-0.3-0.3-0.6-0.5-1-0.9C34.3,21.9,35.2,21.2,36.3,21z"/>
	</g>
</g>
</svg>
