<?xml version="1.0" encoding="UTF-8"?>
<!-- Generator: Adobe Illustrator 18.0.0, SVG Export Plug-In . SVG Version: 6.00 Build 0)  -->
<!DOCTYPE svg PUBLIC "-//W3C//DTD SVG 1.1//EN" "http://www.w3.org/Graphics/SVG/1.1/DTD/svg11.dtd">
<svg version="1.1" id="Layer_1" xmlns="http://www.w3.org/2000/svg" xmlns:xlink="http://www.w3.org/1999/xlink" x="0px" y="0px" viewBox="0 0 72 72" enable-background="new 0 0 72 72" xml:space="preserve">
<g>
	<g>
		<path d="M14.8,60.1c-0.9-1.1-0.9-1.1-0.2-2.5c1-1.7,2-3.3,3-5c0.6-1.1,1.7-1.7,2.6-2.5c0,0,0.1-0.1,0.1-0.1c1,0.4,1.3-0.5,1.8-1    c3.6-3.8,7.2-7.6,10.8-11.3c0.5-0.5,0.6-1,0-1.5c-0.5-0.5-1-1.1-1.5-1.6c-0.3-0.3-0.3-0.5,0-0.8c0.8-0.8,1.5-1.6,2.3-2.4    c0.3-0.3,0.7-0.4,1.1-0.4c2.7-0.1,4.7-2.1,4.7-4.8c0-0.7,0.2-1.1,0.7-1.6c3.9-4.1,7.8-8.2,11.7-12.4c0.5-0.5,0.8-0.6,1.3,0    c2,2.2,4.1,4.4,6.2,6.5c0.4,0.4,0.4,0.7,0,1.1c-3.1,3.2-6.1,6.4-9.2,9.7c-1,1-2,2-2.9,3.1c-0.3,0.3-0.7,0.5-1.1,0.5    c-2.7,0.1-4.7,2.1-4.7,4.8c0,0.6-0.2,1.1-0.6,1.5c-0.7,0.7-1.3,1.4-2,2.1c-0.3,0.4-0.6,0.4-0.9,0c-0.5-0.6-1.1-1.1-1.7-1.7    c-0.4-0.4-0.6-0.4-1,0c-2.2,2.3-4.4,4.7-6.7,7c-1.7,1.8-3.4,3.6-5.1,5.3c-0.2,0.3-0.5,0.5-0.2,0.9c0.1,0.1,0,0.3-0.1,0.4    c-0.8,1-1.5,2.2-2.7,2.9c-1.6,1-3.1,2.1-4.7,3.1c-0.3,0.2-0.5,0.4-0.7,0.6C15.1,60.1,14.9,60.1,14.8,60.1z"/>
		<path d="M12.2,23c0.2-0.5,0.1-1.1,0.3-1.6c0.1-0.2,0-0.5,0.3-0.5c0.2-0.1,0.4,0.2,0.5,0.3c1.6,1.7,3.2,3.3,4.7,5    c0.3,0.4,0.6,0.5,1.1,0.3c1.4-0.4,2.9-0.8,4.3-1.2c0.4-0.1,0.7-0.4,0.8-0.8c0.4-1.6,0.8-3.1,1.2-4.6c0.1-0.5,0-0.8-0.3-1.1    c-1.5-1.6-3.1-3.3-4.6-4.9c-0.2-0.2-0.5-0.4-0.4-0.6c0.1-0.3,0.5-0.3,0.7-0.3c5-0.9,10,2.3,11.4,7.3c0.5,1.8,0.7,3.6,0.3,5.4    c-0.1,0.6,0,0.9,0.4,1.3c0.7,0.8,1.5,1.5,2.2,2.3c0.1,0.1,0.4,0.3,0.3,0.5C35.3,29.9,35,30,34.9,30c-1.4-0.3-1.9,0.7-2.6,1.5    c-0.7,0.7-1.3,1.4-2.1,2.1c-0.4,0.4-0.5,0.7,0,1.2c0.6,0.6,1.1,1.2,1.7,1.8c0.3,0.3,0.3,0.5,0,0.8c-1.3,1.5-1.3,1.5-2.7,0.1    c-1-1.1-2-2.1-3-3.2c-0.3-0.4-0.7-0.5-1.2-0.4c-6.7,1.6-12.1-3.4-12.6-9.3c0-0.2-0.1-0.5-0.1-0.7C12.2,23.7,12.2,23.3,12.2,23z"/>
		<path d="M51.7,60.1c-1.4-0.5-2.4-1.4-3.4-2.5c-3.6-3.9-7.3-7.7-11-11.6c-0.9-0.9-1.8-1.9-2.7-2.8c-0.4-0.4-0.4-0.7,0-1.1    c1.5-1.5,1.1-1.6,2.5,0c1.3,1.5,1.3,1.5,2.7,0.1c0.7-0.8,1.4-1.6,2.2-2.3c0.6-0.5,0.5-1.2,0.5-1.8c0-0.2,0-0.5,0.2-0.6    c0.2-0.1,0.4,0.2,0.5,0.3c2.8,3,5.6,5.9,8.4,8.9c1.5,1.6,3.1,3.2,4.6,4.9c2.5,2.7,1.4,7.1-2,8.4c-0.2,0.1-0.3,0.2-0.5,0.2    C53,60.1,52.4,60.1,51.7,60.1z M52.7,52.6c-1.5,0.1-2.6,1.2-2.5,2.8c0,0.6,1.6,2.1,2.1,2.1c1.6-0.1,2.6-1.1,2.6-2.8    C54.8,54.2,53.2,52.5,52.7,52.6z"/>
	</g>
</g>
</svg>