<?xml version="1.0" encoding="utf-8"?>
<!-- Generator: Adobe Illustrator 18.0.0, SVG Export Plug-In . SVG Version: 6.00 Build 0)  -->
<!DOCTYPE svg PUBLIC "-//W3C//DTD SVG 1.1//EN" "http://www.w3.org/Graphics/SVG/1.1/DTD/svg11.dtd">
<svg version="1.1" id="Layer_1" xmlns="http://www.w3.org/2000/svg" xmlns:xlink="http://www.w3.org/1999/xlink" x="0px" y="0px"
	 viewBox="0 0 72 72" enable-background="new 0 0 72 72" xml:space="preserve">
<g>
	<g>
		<path d="M37.8,46.4c0,0.5,0,1,0,1.5c0,1.5,0,1.6,1.5,1.7c0.8,0.1,1.6,0.1,2.4,0.2c0.6,0.1,0.7-0.3,0.8-0.8c0.3-3.4,1.7-6.4,3.7-9
			c5.7-7.5,1-17.5-8-18.9c-5.1-0.8-9.4,0.7-12.6,4.9c-2.7,3.5-3.2,7.5-1.1,11.6c0.8,1.7,1.8,3.3,2.8,4.9c1.5,2.5,2.2,5.3,2.3,8.2
			c0,0.8-0.1,1.5-1,1.7c-0.7,0.1-1.3-0.5-1.3-1.6c0-2-0.3-4-1.2-5.9c-0.9-1.7-1.9-3.5-3-5.1c-4.9-7.8-0.5-16.5,6.4-19.7
			c7.4-3.3,15.9-0.7,19.9,6.3c2.7,4.9,2.4,9.9-0.8,14.5c-2.2,3.1-3.9,6.4-3.7,10.3c0,1.2-0.3,1.4-1.4,1.2c-2.3-0.3-4.7-0.6-7-0.5
			c-0.8,0-1.1-0.2-0.9-1.1c0.3-1.9,0.4-3.9,0.3-5.8c0-0.5,0-0.9-0.7-1c-4-0.6-6.3-3-7.5-6.7c-0.1-0.2-0.1-0.4-0.2-0.7
			c-0.5-1.8-0.5-1.8,1.3-2c0.9-0.1,1.1-0.4,0.9-1.2c-0.1-0.4,0-0.9,0-1.3c0.1-0.7,0.4-1.1,1.1-1c0.7,0.1,1-0.2,1.1-1
			c0.1-1.4,0.6-2.6,1.3-3.8c0.6-1,1.4-1.2,2.4-0.5c1.3,0.8,2.2,2,2.9,3.3c0.3,0.5,0.6,0.7,1.1,0.4c0.9-0.5,1.4-0.2,1.7,0.7
			c0.2,0.6,0.3,1.5,0.8,1.8c0.5,0.2,1.3-0.1,1.9-0.3c0.4-0.1,0.7,0,0.8,0.5c0.6,3,0.5,6-1.5,8.6c-0.7,0.9-1.5,1.5-2.4,2.1
			c-0.7,0.4-1.3,0.4-1.7-0.3c-0.4-0.7,0-1.3,0.6-1.7c2.1-1.2,3-3.1,3-5.4c0-1-0.1-1.1-1-0.7c-2,0.8-2,0.8-2-1.3
			c0-1.3-0.2-1.4-1.4-0.7c-0.6,0.4-0.9,0.2-1.1-0.4c-0.3-1.4-1-2.6-1.9-3.6c-0.5-0.5-0.7-0.5-0.9,0.2c-0.4,1.3-0.5,2.7-0.3,4
			c0.1,0.9-0.1,1-0.9,0.8c-1.2-0.2-1.3-0.1-0.9,1.1c0.1,0.4,0.3,0.7,0.5,1.1c0.1,0.3,0.5,0.6,0.2,0.9c-0.3,0.3-0.6,0.1-1,0.1
			c-0.7-0.1-1.5-0.5-1.9,0.1c-0.3,0.5,0.3,1.2,0.7,1.8c0.9,1.4,2.1,2.3,3.7,2.8c0.8,0.3,1.1-0.1,0.9-0.8c-0.1-0.7-0.3-1.4-0.4-2.2
			c-0.2-1,0.1-1.7,0.8-1.8c0.9-0.1,1.2,0.6,1.4,1.3C37.5,40.7,37.9,43.5,37.8,46.4z"/>
		<path d="M41.9,59.8c-1-0.4-1.6,0.2-1.9,1.1c-0.3,0.8-0.9,1.1-1.8,1.1c-1.5,0-3-0.1-4.5,0c-1,0-1.6-0.3-1.9-1.2
			c-0.3-0.9-1-1.2-1.9-1C29.5,60,29.2,60,29,60c-0.6,0-1.1-0.2-1.3-0.9c-0.1-0.7,0.2-1.1,0.9-1.4c1.1-0.4,2.2-0.5,3.3-0.5
			c3.6-0.1,7.2-0.2,10.7,0.3c0.8,0.1,1.6,0.3,1.6,1.3c-0.1,1-0.9,1.1-1.8,1C42.3,59.8,42.2,59.8,41.9,59.8z"/>
		<path d="M37.2,55.7c-2.8,0.1-5.4-0.1-8,0.4c-0.7,0.1-1.3-0.1-1.4-0.9c-0.1-0.8,0.3-1.2,1.1-1.3c3.6-0.6,7.1-0.7,10.7-0.4
			c1.1,0.1,2.2,0.2,3.3,0.3c0.7,0.1,1.4,0.4,1.3,1.2c0,0.8-0.7,1.1-1.4,1C40.8,55.7,38.9,55.8,37.2,55.7z"/>
		<path d="M37.6,13.1c0,0.6,0.1,1.3-0.2,1.9c-0.2,0.7-0.7,1.2-1.5,1.2c-0.7,0-1.2-0.5-1.4-1.1c-0.3-1.4-0.3-2.7,0-4.1
			c0.2-0.6,0.7-1,1.4-1c0.7,0,1.2,0.4,1.4,1.1C37.7,11.7,37.6,12.4,37.6,13.1z"/>
		<path d="M15.4,32.1c0.5,0,1.1,0,1.6,0c0.9,0.1,1.5,0.6,1.5,1.4c0,0.9-0.5,1.4-1.3,1.5c-1.2,0.2-2.4,0.2-3.6,0
			c-0.8-0.1-1.3-0.7-1.2-1.6c0.1-0.9,0.6-1.3,1.4-1.4C14.3,32.1,14.9,32.1,15.4,32.1C15.4,32.1,15.4,32.1,15.4,32.1z"/>
		<path d="M20.2,16.4c1.1,0,3.9,2.8,3.9,3.8c0,0.5-0.2,1-0.7,1.2c-0.5,0.3-1.2,0.3-1.6-0.1c-0.9-0.8-1.8-1.7-2.6-2.6
			c-0.4-0.4-0.4-1-0.1-1.5C19.3,16.7,19.7,16.5,20.2,16.4z"/>
		<path d="M56.6,32.1c0.5,0,1.1,0,1.6,0c0.9,0.1,1.5,0.7,1.5,1.5c0,0.9-0.5,1.4-1.3,1.5c-1.2,0.1-2.3,0.1-3.5,0
			c-0.8-0.1-1.3-0.6-1.3-1.5c0-0.8,0.6-1.4,1.5-1.4C55.5,32.1,56,32.1,56.6,32.1z"/>
		<path d="M53.2,17.9c0,1-2.9,3.8-3.7,3.8c-0.6,0-1.1-0.2-1.3-0.7c-0.3-0.6-0.3-1.1,0.1-1.6c0.8-1,1.7-1.8,2.6-2.6
			c0.4-0.4,1-0.4,1.5-0.1C52.9,16.9,53.1,17.4,53.2,17.9z"/>
		<path d="M53.2,49.2c0,0.6-0.2,1-0.7,1.3c-0.5,0.3-1.2,0.4-1.6,0c-1-0.9-1.9-1.8-2.8-2.8c-0.4-0.5-0.3-1.2,0.2-1.7
			c0.4-0.5,1-0.8,1.5-0.5c1.4,0.8,2.5,1.9,3.3,3.3C53.2,49,53.2,49.1,53.2,49.2z"/>
		<path d="M20.4,50.7c-0.6,0-1.1-0.2-1.4-0.7c-0.3-0.5-0.3-1.1,0.1-1.6c0.8-1,1.6-1.9,2.6-2.6c0.7-0.5,1.4-0.5,2,0.2
			c0.5,0.7,0.5,1.4-0.1,2c-0.7,0.8-1.5,1.5-2.3,2.3C21.1,50.6,20.7,50.8,20.4,50.7z"/>
	</g>
</g>
</svg>
