<?xml version="1.0" encoding="utf-8"?>
<!-- Generator: Adobe Illustrator 18.0.0, SVG Export Plug-In . SVG Version: 6.00 Build 0)  -->
<!DOCTYPE svg PUBLIC "-//W3C//DTD SVG 1.1//EN" "http://www.w3.org/Graphics/SVG/1.1/DTD/svg11.dtd">
<svg version="1.1" id="Layer_1" xmlns="http://www.w3.org/2000/svg" xmlns:xlink="http://www.w3.org/1999/xlink" x="0px" y="0px"
	 viewBox="0 0 72 72" enable-background="new 0 0 72 72" xml:space="preserve">
<g>
	<g>
		<path d="M19.5,36.1c0,1.3-1.1,0.5-1.5,0.8c-0.6-0.2-1.6,0.4-1.5-0.9c0.1-1.3,1-0.7,1.6-0.7C18.6,35.3,19.5,34.8,19.5,36.1z"/>
		<path d="M21.8,44.8c-0.5,0.8-1.2,1.2-2.1,1.3c-0.4,0.1-0.8-0.2-0.8-0.7c0-0.5,1.5-1.6,2.2-1.5C21.6,44,21.7,44.3,21.8,44.8z"/>
		<path d="M20.9,28.1c-0.7-0.3-1.7-0.4-1.9-1.4c-0.1-0.5,0.3-0.9,0.8-0.8c0.8,0.2,1.8,0.5,2,1.5C21.9,27.8,21.5,28.1,20.9,28.1z"/>
		<path d="M28.1,50.9c-0.1,0.9-0.5,1.8-1.4,2.1c-0.4,0.2-1-0.1-0.9-0.7c0.2-0.9,0.5-1.7,1.3-2.1C27.7,50.2,28.2,50.5,28.1,50.9z"/>
		<path d="M27.3,21.9c-0.3,0-1.7-1.8-1.6-2.3c0-0.6,0.6-0.8,0.9-0.8c1,0.2,1.2,1.3,1.6,2.1C28.5,21.6,27.7,21.7,27.3,21.9z"/>
		<path d="M35.9,55.7c-1.2,0-0.6-1-0.8-1.6c0.2-0.6-0.4-1.5,0.8-1.5c1.2,0,0.8,0.9,0.8,1.5C36.7,54.7,37.3,55.7,35.9,55.7z"/>
		<path d="M36.1,19.5c-1.3,0.1-0.9-0.9-0.9-1.6c0-0.6-0.4-1.6,0.9-1.6c1.2,0,0.6,1,0.8,1.6C36.6,18.5,37.2,19.5,36.1,19.5z"/>
		<path d="M45.5,53c-1.2,0-1.2-1.1-1.6-1.9c-0.2-0.5,0.2-0.8,0.8-0.9c0.9,0.3,1.2,1.2,1.5,2C46.3,52.7,46,53,45.5,53z"/>
		<path d="M49.1,36.1c0,1.1-0.6,1.1-1.4,1.1c-3.6,0-7.2,0-10.8,0c-1.9,0-2.4-0.9-1.5-2.6c2-3.6,4.1-7.2,6.2-10.7
			c1-1.8,2.1-3.6,3.1-5.5c0.5-0.9,0.9-0.9,1.7-0.4c0.8,0.5,0.8,0.9,0.4,1.6c-2.8,4.7-5.4,9.4-8.2,14.1c-0.2,0.3-0.4,0.7-0.6,1.2
			c3.3,0,6.4,0,9.5,0C48.5,34.9,49.1,34.9,49.1,36.1z"/>
		<path d="M53.2,26.6c0.1,0.3-1.8,1.7-2.3,1.7c-0.6,0-0.6-0.6-0.8-0.9c-0.1-0.3,1.8-1.7,2.3-1.7C52.9,25.7,53,26.2,53.2,26.6z"/>
		<path d="M53.2,45.4c-0.1,0.4-0.3,1.1-0.8,0.9c-0.9-0.2-1.8-0.6-2.3-1.4c-0.2-0.4,0.3-0.9,0.6-1.1C51.2,43.7,53.3,45.1,53.2,45.4z"
			/>
		<path d="M55.5,36.1c0,1.3-1,0.5-1.5,0.8c-0.6-0.2-1.6,0.4-1.5-0.9c0.1-1.3,1-0.7,1.6-0.7C54.6,35.3,55.6,34.8,55.5,36.1z"/>
		<path d="M36,11.3c-13.7,0-24.8,11.1-24.8,24.8c0,13.6,11.1,24.7,24.7,24.7c13.7,0,24.8-11,24.9-24.7C60.8,22.4,49.7,11.3,36,11.3z
			 M35.9,59c-12.6-0.1-23.1-10.5-23-23c0.2-14,11.8-23.4,23.8-23c11.2,0.4,22.1,9.3,22.3,23.1C59.1,48.7,48.5,59,35.9,59z"/>
		<path d="M19.5,36.1c0,1.3-1.1,0.5-1.5,0.8c-0.6-0.2-1.6,0.4-1.5-0.9c0.1-1.3,1-0.7,1.6-0.7C18.6,35.3,19.5,34.8,19.5,36.1z"/>
		<path d="M21.8,44.8c-0.5,0.8-1.2,1.2-2.1,1.3c-0.4,0.1-0.8-0.2-0.8-0.7c0-0.5,1.5-1.6,2.2-1.5C21.6,44,21.7,44.3,21.8,44.8z"/>
		<path d="M20.9,28.1c-0.7-0.3-1.7-0.4-1.9-1.4c-0.1-0.5,0.3-0.9,0.8-0.8c0.8,0.2,1.8,0.5,2,1.5C21.9,27.8,21.5,28.1,20.9,28.1z"/>
		<path d="M28.1,50.9c-0.1,0.9-0.5,1.8-1.4,2.1c-0.4,0.2-1-0.1-0.9-0.7c0.2-0.9,0.5-1.7,1.3-2.1C27.7,50.2,28.2,50.5,28.1,50.9z"/>
		<path d="M27.3,21.9c-0.3,0-1.7-1.8-1.6-2.3c0-0.6,0.6-0.8,0.9-0.8c1,0.2,1.2,1.3,1.6,2.1C28.5,21.6,27.7,21.7,27.3,21.9z"/>
		<path d="M35.9,55.7c-1.2,0-0.6-1-0.8-1.6c0.2-0.6-0.4-1.5,0.8-1.5c1.2,0,0.8,0.9,0.8,1.5C36.7,54.7,37.3,55.7,35.9,55.7z"/>
		<path d="M36.1,19.5c-1.3,0.1-0.9-0.9-0.9-1.6c0-0.6-0.4-1.6,0.9-1.6c1.2,0,0.6,1,0.8,1.6C36.6,18.5,37.2,19.5,36.1,19.5z"/>
		<path d="M45.5,53c-1.2,0-1.2-1.1-1.6-1.9c-0.2-0.5,0.2-0.8,0.8-0.9c0.9,0.3,1.2,1.2,1.5,2C46.3,52.7,46,53,45.5,53z"/>
		<path d="M49.1,36.1c0,1.1-0.6,1.1-1.4,1.1c-3.6,0-7.2,0-10.8,0c-1.9,0-2.4-0.9-1.5-2.6c2-3.6,4.1-7.2,6.2-10.7
			c1-1.8,2.1-3.6,3.1-5.5c0.5-0.9,0.9-0.9,1.7-0.4c0.8,0.5,0.8,0.9,0.4,1.6c-2.8,4.7-5.4,9.4-8.2,14.1c-0.2,0.3-0.4,0.7-0.6,1.2
			c3.3,0,6.4,0,9.5,0C48.5,34.9,49.1,34.9,49.1,36.1z"/>
		<path d="M53.2,26.6c0.1,0.3-1.8,1.7-2.3,1.7c-0.6,0-0.6-0.6-0.8-0.9c-0.1-0.3,1.8-1.7,2.3-1.7C52.9,25.7,53,26.2,53.2,26.6z"/>
		<path d="M53.2,45.4c-0.1,0.4-0.3,1.1-0.8,0.9c-0.9-0.2-1.8-0.6-2.3-1.4c-0.2-0.4,0.3-0.9,0.6-1.1C51.2,43.7,53.3,45.1,53.2,45.4z"
			/>
		<path d="M55.5,36.1c0,1.3-1,0.5-1.5,0.8c-0.6-0.2-1.6,0.4-1.5-0.9c0.1-1.3,1-0.7,1.6-0.7C54.6,35.3,55.6,34.8,55.5,36.1z"/>
		<path d="M36,11.3c-13.7,0-24.8,11.1-24.8,24.8c0,13.6,11.1,24.7,24.7,24.7c13.7,0,24.8-11,24.9-24.7C60.8,22.4,49.7,11.3,36,11.3z
			 M35.9,59c-12.6-0.1-23.1-10.5-23-23c0.2-14,11.8-23.4,23.8-23c11.2,0.4,22.1,9.3,22.3,23.1C59.1,48.7,48.5,59,35.9,59z"/>
		<path d="M19.5,36.1c0,1.3-1.1,0.5-1.5,0.8c-0.6-0.2-1.6,0.4-1.5-0.9c0.1-1.3,1-0.7,1.6-0.7C18.6,35.3,19.5,34.8,19.5,36.1z"/>
		<path d="M21.8,44.8c-0.5,0.8-1.2,1.2-2.1,1.3c-0.4,0.1-0.8-0.2-0.8-0.7c0-0.5,1.5-1.6,2.2-1.5C21.6,44,21.7,44.3,21.8,44.8z"/>
		<path d="M20.9,28.1c-0.7-0.3-1.7-0.4-1.9-1.4c-0.1-0.5,0.3-0.9,0.8-0.8c0.8,0.2,1.8,0.5,2,1.5C21.9,27.8,21.5,28.1,20.9,28.1z"/>
		<path d="M28.1,50.9c-0.1,0.9-0.5,1.8-1.4,2.1c-0.4,0.2-1-0.1-0.9-0.7c0.2-0.9,0.5-1.7,1.3-2.1C27.7,50.2,28.2,50.5,28.1,50.9z"/>
		<path d="M27.3,21.9c-0.3,0-1.7-1.8-1.6-2.3c0-0.6,0.6-0.8,0.9-0.8c1,0.2,1.2,1.3,1.6,2.1C28.5,21.6,27.7,21.7,27.3,21.9z"/>
		<path d="M35.9,55.7c-1.2,0-0.6-1-0.8-1.6c0.2-0.6-0.4-1.5,0.8-1.5c1.2,0,0.8,0.9,0.8,1.5C36.7,54.7,37.3,55.7,35.9,55.7z"/>
		<path d="M36.1,19.5c-1.3,0.1-0.9-0.9-0.9-1.6c0-0.6-0.4-1.6,0.9-1.6c1.2,0,0.6,1,0.8,1.6C36.6,18.5,37.2,19.5,36.1,19.5z"/>
		<path d="M45.5,53c-1.2,0-1.2-1.1-1.6-1.9c-0.2-0.5,0.2-0.8,0.8-0.9c0.9,0.3,1.2,1.2,1.5,2C46.3,52.7,46,53,45.5,53z"/>
		<path d="M49.1,36.1c0,1.1-0.6,1.1-1.4,1.1c-3.6,0-7.2,0-10.8,0c-1.9,0-2.4-0.9-1.5-2.6c2-3.6,4.1-7.2,6.2-10.7
			c1-1.8,2.1-3.6,3.1-5.5c0.5-0.9,0.9-0.9,1.7-0.4c0.8,0.5,0.8,0.9,0.4,1.6c-2.8,4.7-5.4,9.4-8.2,14.1c-0.2,0.3-0.4,0.7-0.6,1.2
			c3.3,0,6.4,0,9.5,0C48.5,34.9,49.1,34.9,49.1,36.1z"/>
		<path d="M53.2,26.6c0.1,0.3-1.8,1.7-2.3,1.7c-0.6,0-0.6-0.6-0.8-0.9c-0.1-0.3,1.8-1.7,2.3-1.7C52.9,25.7,53,26.2,53.2,26.6z"/>
		<path d="M53.2,45.4c-0.1,0.4-0.3,1.1-0.8,0.9c-0.9-0.2-1.8-0.6-2.3-1.4c-0.2-0.4,0.3-0.9,0.6-1.1C51.2,43.7,53.3,45.1,53.2,45.4z"
			/>
		<path d="M55.5,36.1c0,1.3-1,0.5-1.5,0.8c-0.6-0.2-1.6,0.4-1.5-0.9c0.1-1.3,1-0.7,1.6-0.7C54.6,35.3,55.6,34.8,55.5,36.1z"/>
		<path d="M49.1,36.1c0,1.1-0.6,1.1-1.4,1.1c-3.6,0-7.2,0-10.8,0c-1.9,0-2.4-0.9-1.5-2.6c2-3.6,4.1-7.2,6.2-10.7
			c1-1.8,2.1-3.6,3.1-5.5c0.5-0.9,0.9-0.9,1.7-0.4c0.8,0.5,0.8,0.9,0.4,1.6c-2.8,4.7-5.4,9.4-8.2,14.1c-0.2,0.3-0.4,0.7-0.6,1.2
			c3.3,0,6.4,0,9.5,0C48.5,34.9,49.1,34.9,49.1,36.1z"/>
		<path d="M36.1,19.5c-1.3,0.1-0.9-0.9-0.9-1.6c0-0.6-0.4-1.6,0.9-1.6c1.2,0,0.6,1,0.8,1.6C36.6,18.5,37.2,19.5,36.1,19.5z"/>
		<path d="M35.9,55.7c-1.2,0-0.6-1-0.8-1.6c0.2-0.6-0.4-1.5,0.8-1.5c1.2,0,0.8,0.9,0.8,1.5C36.7,54.7,37.3,55.7,35.9,55.7z"/>
		<path d="M53.2,26.6c0.1,0.3-1.8,1.7-2.3,1.7c-0.6,0-0.6-0.6-0.8-0.9c-0.1-0.3,1.8-1.7,2.3-1.7C52.9,25.7,53,26.2,53.2,26.6z"/>
		<path d="M53.2,45.4c-0.1,0.4-0.3,1.1-0.8,0.9c-0.9-0.2-1.8-0.6-2.3-1.4c-0.2-0.4,0.3-0.9,0.6-1.1C51.2,43.7,53.3,45.1,53.2,45.4z"
			/>
		<path d="M27.3,21.9c-0.3,0-1.7-1.8-1.6-2.3c0-0.6,0.6-0.8,0.9-0.8c1,0.2,1.2,1.3,1.6,2.1C28.5,21.6,27.7,21.7,27.3,21.9z"/>
		<path d="M28.1,50.9c-0.1,0.9-0.5,1.8-1.4,2.1c-0.4,0.2-1-0.1-0.9-0.7c0.2-0.9,0.5-1.7,1.3-2.1C27.7,50.2,28.2,50.5,28.1,50.9z"/>
		<path d="M45.5,53c-1.2,0-1.2-1.1-1.6-1.9c-0.2-0.5,0.2-0.8,0.8-0.9c0.9,0.3,1.2,1.2,1.5,2C46.3,52.7,46,53,45.5,53z"/>
		<path d="M20.9,28.1c-0.7-0.3-1.7-0.4-1.9-1.4c-0.1-0.5,0.3-0.9,0.8-0.8c0.8,0.2,1.8,0.5,2,1.5C21.9,27.8,21.5,28.1,20.9,28.1z"/>
		<path d="M19.5,36.1c0,1.3-1.1,0.5-1.5,0.8c-0.6-0.2-1.6,0.4-1.5-0.9c0.1-1.3,1-0.7,1.6-0.7C18.6,35.3,19.5,34.8,19.5,36.1z"/>
		<path d="M55.5,36.1c0,1.3-1,0.5-1.5,0.8c-0.6-0.2-1.6,0.4-1.5-0.9c0.1-1.3,1-0.7,1.6-0.7C54.6,35.3,55.6,34.8,55.5,36.1z"/>
		<path d="M21.8,44.8c-0.5,0.8-1.2,1.2-2.1,1.3c-0.4,0.1-0.8-0.2-0.8-0.7c0-0.5,1.5-1.6,2.2-1.5C21.6,44,21.7,44.3,21.8,44.8z"/>
	</g>
</g>
</svg>
