<?xml version="1.0" encoding="utf-8"?>
<!-- Generator: Adobe Illustrator 18.0.0, SVG Export Plug-In . SVG Version: 6.00 Build 0)  -->
<!DOCTYPE svg PUBLIC "-//W3C//DTD SVG 1.1//EN" "http://www.w3.org/Graphics/SVG/1.1/DTD/svg11.dtd">
<svg version="1.1" id="Layer_1" xmlns="http://www.w3.org/2000/svg" xmlns:xlink="http://www.w3.org/1999/xlink" x="0px" y="0px"
	 viewBox="0 0 72 72" enable-background="new 0 0 72 72" xml:space="preserve">
<g>
	<g>
		<path d="M56.8,37.1c-0.5-0.6-1.1-1.1-1.6-1.7c-1-1-1.2-2.2-0.5-3.5c0.3-0.6,0.6-1.3,1-1.9c1-1.8-0.2-4-2-4.3
			c-0.8-0.2-1.5-0.3-2.3-0.6c-1.2-0.3-1.9-1.1-2.1-2.3c-0.1-0.9-0.2-1.8-0.3-2.7c-0.3-1.9-2.1-3-3.9-2.4c-0.8,0.3-1.5,0.6-2.3,0.8
			c-1.1,0.3-2,0.1-2.8-0.7c-0.6-0.6-1-1.3-1.5-1.9c-1.4-1.8-3.6-1.8-5,0c-0.4,0.5-0.8,1-1.2,1.5c-1,1.2-2.1,1.5-3.5,1
			c-0.7-0.2-1.4-0.5-2.1-0.7c-1.7-0.6-3.6,0.6-3.8,2.4c-0.1,0.6-0.2,1.3-0.2,2c-0.1,1.8-0.8,2.7-2.6,3.1c-0.6,0.2-1.3,0.3-1.9,0.5
			c-2,0.5-2.8,2.6-1.9,4.4c0.3,0.6,0.7,1.3,1,1.9c0.5,1.1,0.5,2.1-0.3,3.1c-0.5,0.6-1,1.1-1.6,1.7c-1.6,1.7-1.3,3.9,0.7,5
			c0.6,0.3,1.2,0.7,1.8,1c1.1,0.7,1.6,1.8,1.3,3c-0.1,0.7-0.3,1.5-0.4,2.2c-0.4,1.9,1.1,3.6,3,3.6c0.7,0,1.4-0.1,1.9-0.1
			c2.1,0,2.8,0.4,3.5,2.2c0.2,0.6,0.4,1.1,0.7,1.7c0.8,1.9,2.9,2.5,4.6,1.4c0.6-0.4,1.1-0.8,1.6-1.2c1.2-0.9,2.5-0.9,3.7,0
			c0.6,0.4,1.2,0.9,1.8,1.3c1.7,1.1,3.7,0.4,4.4-1.4c0.3-0.7,0.6-1.5,0.9-2.2c0.5-1.1,1.4-1.7,2.7-1.7c0.9,0,1.7,0.1,2.6,0.1
			c1.7,0,3.1-1.6,2.9-3.3c-0.1-0.8-0.3-1.5-0.4-2.3c-0.3-1.5,0.2-2.6,1.6-3.4c0.6-0.3,1.2-0.7,1.8-1.1C57.7,40.6,58,38.6,56.8,37.1z
			 M35.8,50.1c-7.5-0.1-13.5-6-13.6-13.7c0.1-7.7,6-13.8,13.8-13.8c7.7,0,13.7,6,13.8,13.6C49.8,44.1,43.7,50.2,35.8,50.1z"/>
		<path d="M35.7,24c-6.6,0.1-12,5.7-12,12.4c0,6.7,5.6,12.3,12.4,12.3c6.9-0.1,12.3-5.6,12.3-12.4C48.3,29.5,42.6,23.9,35.7,24z
			 M41.7,33.6c-1.4,2-2.9,4-4.2,6c-0.6,0.8-1.2,1.3-2.3,1.3c-0.6-0.1-1.3-0.3-1.9-1c-0.9-1.3-2-2.6-2.9-4c-0.9-1.2-0.4-2.4,1.1-2.7
			c0.5-0.1,1,0.1,1.3,0.5c0.7,1,1.5,2,2.2,3c0.4,0.5,0.4,0.5,0.7,0c1.2-1.6,2.3-3.3,3.5-4.9c0.6-0.8,1.2-1,2-0.4
			C42.2,32.1,42.4,32.7,41.7,33.6z"/>
	</g>
</g>
</svg>
